<?xml version="1.0" encoding="utf-8"?>
<!-- Generator: Adobe Illustrator 25.4.1, SVG Export Plug-In . SVG Version: 6.00 Build 0)  -->
<svg version="1.1" id="Layer_1" xmlns="http://www.w3.org/2000/svg" xmlns:xlink="http://www.w3.org/1999/xlink" x="0px" y="0px"
	 viewBox="0 0 1280 1280" style="enable-background:new 0 0 1280 1280;" xml:space="preserve">
<style type="text/css">
	.st0{fill:#F3F3F3;}
	.st1{fill:none;stroke:#F3F3F3;stroke-width:69;stroke-miterlimit:10;}
</style>
<path class="st0" d="M1191.22,830.59c-61.02,65-116.98,97.49-167.91,97.49c-28.12,0-50.41-9.95-66.85-29.84
	c-16.45-19.9-25.6-48.28-27.46-85.15c-32.1,39-60.55,67.91-85.35,86.74c-24.81,18.83-51.27,28.25-79.38,28.25
	c-36.08,0-65.06-15.58-86.94-46.75s-32.83-72.75-32.83-124.75c0-62.07,14.32-126.07,42.97-191.99
	c28.65-65.92,71.09-117.98,127.33-156.18c56.23-38.2,124.41-57.3,204.52-57.3c59.95,0,114.2,8.1,162.74,24.27v26.26
	c-39.53,46.16-72.62,110.76-99.28,193.78c-26.66,83.03-39.99,146.3-39.99,189.8c0,21.23,4.31,37.67,12.93,49.34
	c8.62,11.68,20.62,17.51,36.01,17.51c27.59,0,60.74-22.41,99.48-67.25V830.59z M1075.43,401.64c-24.41-13.26-50.67-19.9-78.79-19.9
	c-44.3,0-84.22,18.5-119.77,55.51c-35.55,37.01-63.6,86.02-84.16,147.03c-20.56,61.02-30.84,113.94-30.84,158.76
	c0,29.98,5.77,54.32,17.31,73.02c11.54,18.7,26.32,28.05,44.37,28.05c31.3,0,67.24-28.51,107.83-85.55
	C948.1,608.95,996.11,489.98,1075.43,401.64z"/>
<circle class="st1" cx="642" cy="629" r="563"/>
<g>
	<path class="st0" d="M385.34,457.35c8.23-22.02,19.79-42.51,34.67-61.47c14.88-18.96,22.32-29.64,22.32-32.03
		c0-3.18-4.05-6.1-12.13-8.75c-8.1-2.65-13.87-3.98-17.31-3.98c-3.45,0-7.3,2.13-11.54,6.37c-12.2,13-26.26,19.5-42.18,19.5
		c-10.35,0-27.13-4.44-50.34-13.33c-23.21-8.89-42.64-13.33-58.29-13.33c-40.85,0-78.79,18.3-113.8,54.91
		c-35.02,36.61-52.52,76.4-52.52,119.37c0,16.45,4.64,32.5,13.93,48.14c9.28,15.66,18.57,23.48,27.85,23.48
		c8.49,0,18.76-6.1,30.84-18.3c12.07-12.2,18.1-20.56,18.1-25.07c0-2.91-3.32-7.16-9.95-12.73c-20.16-16.97-30.24-36.61-30.24-58.89
		c0-19.36,6.23-35.88,18.7-49.54c12.47-13.66,27.46-20.49,44.96-20.49c9.81,0,25.8,4.12,47.95,12.34
		c22.15,8.22,40.39,12.33,54.71,12.33c20.16,0,44.96-5.7,74.41-17.11C310.48,480.3,270.5,530.9,255.51,570.55
		c-14.99,39.66-26.33,86.15-34.02,139.47c-14.79,105.34-42.75,166.16-83.85,182.51c-0.91,11.55-2.87,22.83-5.87,33.74
		c29.91-2.96,58.1-12.43,84.58-28.44c32.47-19.63,59.51-49.15,81.12-88.55c21.6-39.4,40.39-107.64,56.36-204.72l8.38-48.93
		C369.39,512.12,377.1,479.36,385.34,457.35z"/>
	<path class="st0" d="M548.97,861.23c-24.14,0-36.21-14.85-36.21-44.57c0-6.37,0.6-16.18,1.79-29.44
		c1.19-13.26,1.79-22.81,1.79-28.65c0-30.24-6.04-54.51-18.1-72.82c-12.07-18.31-31.37-34.35-57.9-48.15
		c14.85-5.3,28.65-16.71,41.38-34.22c12.73-17.51,25.33-50.53,37.8-99.08c12.47-48.55,29.84-72.82,52.13-72.82
		c11.4,0,20.03,4.91,25.86,14.72c5.83,9.82,10.21,14.72,13.13,14.72c5.57,0,13.26-9.61,23.08-28.85c9.81-19.23,14.72-31.9,14.72-38
		c0-10.08-5.51-19.76-16.51-29.05c-11.01-9.28-22.62-13.93-34.82-13.93c-52.26,0-91.39,52.92-117.38,158.76
		c-10.61,43.24-21.75,72.69-33.42,88.34c-11.68,15.65-25.86,23.48-42.58,23.48l-17.51-1.19c-16.45,0-24.67,7.96-24.67,23.87
		c0,10.88,6.23,16.31,18.7,16.31c6.63,0,11.54-0.26,14.72-0.8c10.34,10.61,15.52,28.52,15.52,53.72c0,5.84-1.79,23.94-5.37,54.31
		c-3.58,30.38-5.37,47.82-5.37,52.33c0,31.04,8.95,56.64,26.86,76.8c17.91,20.16,40.52,30.24,67.84,30.24
		c26.79,0,52.26-7.8,76.4-23.37c24.14-15.58,52.13-40.29,83.96-74.12v-45.76C612.1,835.5,576.82,861.23,548.97,861.23z"/>
</g>
</svg>
